<mxfile host="Electron" agent="Mozilla/5.0 (Macintosh; Intel Mac OS X 10_15_7) AppleWebKit/537.36 (KHTML, like Gecko) draw.io/24.7.8 Chrome/128.0.6613.36 Electron/32.0.1 Safari/537.36" version="24.7.8">
  <diagram name="Page-1" id="O2IHWbyJUUnRvIjmBWIC">
    <mxGraphModel dx="545" dy="350" grid="1" gridSize="10" guides="1" tooltips="1" connect="1" arrows="1" fold="1" page="1" pageScale="1" pageWidth="1100" pageHeight="850" math="0" shadow="0">
      <root>
        <mxCell id="0" />
        <mxCell id="1" parent="0" />
        <mxCell id="-PqMjG7bG7qX0cA3N6xI-157" value="" style="endArrow=none;html=1;rounded=0;entryX=0.5;entryY=1;entryDx=0;entryDy=0;exitX=0.7;exitY=0.117;exitDx=0;exitDy=0;exitPerimeter=0;" parent="1" source="-PqMjG7bG7qX0cA3N6xI-153" target="s0cp7414dYH4K7qgW8Wr-133" edge="1">
          <mxGeometry relative="1" as="geometry">
            <mxPoint x="121" y="702" as="sourcePoint" />
            <mxPoint x="101" y="676" as="targetPoint" />
          </mxGeometry>
        </mxCell>
        <mxCell id="79" value="" style="endArrow=none;html=1;rounded=0;entryX=0.03;entryY=0.275;entryDx=0;entryDy=0;entryPerimeter=0;exitX=1;exitY=0.901;exitDx=0;exitDy=0;exitPerimeter=0;" parent="1" source="67" target="72" edge="1">
          <mxGeometry relative="1" as="geometry">
            <mxPoint x="863" y="679" as="sourcePoint" />
            <mxPoint x="1078" y="811" as="targetPoint" />
          </mxGeometry>
        </mxCell>
        <mxCell id="ULeVYE0AILE1OWulV4gZ-132" value="" style="endArrow=none;html=1;rounded=0;entryX=0.5;entryY=0;entryDx=0;entryDy=0;exitX=0.5;exitY=1;exitDx=0;exitDy=0;" parent="1" source="67" target="ULeVYE0AILE1OWulV4gZ-131" edge="1">
          <mxGeometry relative="1" as="geometry">
            <mxPoint x="783" y="681" as="sourcePoint" />
            <mxPoint x="803" y="751" as="targetPoint" />
          </mxGeometry>
        </mxCell>
        <mxCell id="WYIaFoMT0lkRHPIssKwt-131" value="M" style="rounded=0;orthogonalLoop=1;jettySize=auto;html=1;exitX=0;exitY=0;exitDx=0;exitDy=0;endArrow=none;endFill=0;strokeWidth=1;entryX=1;entryY=0.5;entryDx=0;entryDy=0;shape=link;" parent="1" source="67" target="cuakxwB27ysg3Rb4rqLv-142" edge="1">
          <mxGeometry relative="1" as="geometry">
            <mxPoint x="470" y="420" as="sourcePoint" />
            <mxPoint x="673" y="101" as="targetPoint" />
          </mxGeometry>
        </mxCell>
        <mxCell id="14" value="Customer" style="whiteSpace=wrap;html=1;align=center;container=0;" parent="1" vertex="1">
          <mxGeometry x="284" y="580" width="100" height="40" as="geometry" />
        </mxCell>
        <mxCell id="18" value="Email" style="ellipse;whiteSpace=wrap;html=1;align=center;" parent="1" vertex="1">
          <mxGeometry x="224" y="694" width="60" height="25" as="geometry" />
        </mxCell>
        <mxCell id="19" value="" style="endArrow=none;html=1;rounded=0;entryX=1;entryY=0;entryDx=0;entryDy=0;" parent="1" target="18" edge="1">
          <mxGeometry relative="1" as="geometry">
            <mxPoint x="334" y="619" as="sourcePoint" />
            <mxPoint x="593" y="278" as="targetPoint" />
          </mxGeometry>
        </mxCell>
        <mxCell id="34" value="Sell" style="shape=rhombus;perimeter=rhombusPerimeter;whiteSpace=wrap;html=1;align=center;" parent="1" vertex="1">
          <mxGeometry x="480" y="586" width="80" height="45" as="geometry" />
        </mxCell>
        <mxCell id="35" value="M" style="endArrow=none;html=1;rounded=0;exitX=1;exitY=0.5;exitDx=0;exitDy=0;entryX=0;entryY=0.25;entryDx=0;entryDy=0;shape=link;strokeWidth=1;" parent="1" source="34" target="67" edge="1">
          <mxGeometry relative="1" as="geometry">
            <mxPoint x="363" y="496" as="sourcePoint" />
            <mxPoint x="630.5" y="746" as="targetPoint" />
          </mxGeometry>
        </mxCell>
        <mxCell id="37" value="1" style="endArrow=none;html=1;rounded=0;exitX=0;exitY=0.5;exitDx=0;exitDy=0;entryX=1;entryY=0.5;entryDx=0;entryDy=0;" parent="1" source="34" target="14" edge="1">
          <mxGeometry relative="1" as="geometry">
            <mxPoint x="511" y="677.5" as="sourcePoint" />
            <mxPoint x="514" y="660" as="targetPoint" />
          </mxGeometry>
        </mxCell>
        <mxCell id="39" value="Buy" style="shape=rhombus;perimeter=rhombusPerimeter;whiteSpace=wrap;html=1;align=center;" parent="1" vertex="1">
          <mxGeometry x="470" y="667" width="70" height="40" as="geometry" />
        </mxCell>
        <mxCell id="40" value="M" style="endArrow=none;html=1;rounded=0;exitX=1;exitY=0.5;exitDx=0;exitDy=0;entryX=0;entryY=1;entryDx=0;entryDy=0;" parent="1" source="39" target="67" edge="1">
          <mxGeometry relative="1" as="geometry">
            <mxPoint x="383" y="341" as="sourcePoint" />
            <mxPoint x="543" y="341" as="targetPoint" />
          </mxGeometry>
        </mxCell>
        <mxCell id="42" value="1" style="endArrow=none;html=1;rounded=0;entryX=1;entryY=0.75;entryDx=0;entryDy=0;exitX=0;exitY=0.5;exitDx=0;exitDy=0;" parent="1" source="39" target="14" edge="1">
          <mxGeometry relative="1" as="geometry">
            <mxPoint x="501" y="756" as="sourcePoint" />
            <mxPoint x="504" y="750" as="targetPoint" />
          </mxGeometry>
        </mxCell>
        <mxCell id="44" value="PurchasePrice" style="ellipse;whiteSpace=wrap;html=1;align=center;" parent="1" vertex="1">
          <mxGeometry x="740" y="541.5" width="90" height="30" as="geometry" />
        </mxCell>
        <mxCell id="45" value="" style="endArrow=none;html=1;rounded=0;exitX=0.5;exitY=1;exitDx=0;exitDy=0;entryX=0.25;entryY=0;entryDx=0;entryDy=0;" parent="1" source="44" target="67" edge="1">
          <mxGeometry relative="1" as="geometry">
            <mxPoint x="653" y="491" as="sourcePoint" />
            <mxPoint x="813" y="491" as="targetPoint" />
          </mxGeometry>
        </mxCell>
        <mxCell id="46" value="Condition" style="ellipse;whiteSpace=wrap;html=1;align=center;" parent="1" vertex="1">
          <mxGeometry x="848" y="541.5" width="70" height="30" as="geometry" />
        </mxCell>
        <mxCell id="47" value="" style="endArrow=none;html=1;rounded=0;exitX=0.5;exitY=1;exitDx=0;exitDy=0;entryX=0.5;entryY=0;entryDx=0;entryDy=0;" parent="1" source="46" target="67" edge="1">
          <mxGeometry relative="1" as="geometry">
            <mxPoint x="473" y="501" as="sourcePoint" />
            <mxPoint x="521" y="551" as="targetPoint" />
          </mxGeometry>
        </mxCell>
        <mxCell id="48" value="PurchaseDate" style="ellipse;whiteSpace=wrap;html=1;align=center;" parent="1" vertex="1">
          <mxGeometry x="810" y="491" width="90" height="35" as="geometry" />
        </mxCell>
        <mxCell id="49" value="" style="endArrow=none;html=1;rounded=0;exitX=0.5;exitY=1;exitDx=0;exitDy=0;entryX=0.41;entryY=0.05;entryDx=0;entryDy=0;entryPerimeter=0;" parent="1" source="48" target="67" edge="1">
          <mxGeometry relative="1" as="geometry">
            <mxPoint x="653" y="491" as="sourcePoint" />
            <mxPoint x="813" y="491" as="targetPoint" />
          </mxGeometry>
        </mxCell>
        <mxCell id="51" value="" style="endArrow=none;html=1;rounded=0;entryX=0;entryY=0.5;entryDx=0;entryDy=0;shape=link;exitX=1;exitY=1;exitDx=0;exitDy=0;" parent="1" source="s0cp7414dYH4K7qgW8Wr-136" target="14" edge="1">
          <mxGeometry relative="1" as="geometry">
            <mxPoint x="260" y="660" as="sourcePoint" />
            <mxPoint x="753" y="341" as="targetPoint" />
          </mxGeometry>
        </mxCell>
        <mxCell id="54" value="SaleDate" style="ellipse;whiteSpace=wrap;html=1;align=center;" parent="1" vertex="1">
          <mxGeometry x="648" y="711" width="70" height="30" as="geometry" />
        </mxCell>
        <mxCell id="55" value="" style="endArrow=none;html=1;rounded=0;exitX=0.15;exitY=1;exitDx=0;exitDy=0;entryX=0.69;entryY=0.125;entryDx=0;entryDy=0;entryPerimeter=0;exitPerimeter=0;" parent="1" source="67" target="54" edge="1">
          <mxGeometry relative="1" as="geometry">
            <mxPoint x="723" y="701" as="sourcePoint" />
            <mxPoint x="600" y="842" as="targetPoint" />
          </mxGeometry>
        </mxCell>
        <mxCell id="57" value="Has" style="shape=rhombus;double=0;perimeter=rhombusPerimeter;whiteSpace=wrap;html=1;align=center;" parent="1" vertex="1">
          <mxGeometry x="560" y="350" width="70" height="40" as="geometry" />
        </mxCell>
        <mxCell id="67" value="Vehicle" style="whiteSpace=wrap;html=1;align=center;container=0;" parent="1" vertex="1">
          <mxGeometry x="758" y="641" width="100" height="40" as="geometry" />
        </mxCell>
        <mxCell id="68" value="VIN" style="ellipse;whiteSpace=wrap;html=1;align=center;fontStyle=4;container=0;" parent="1" vertex="1">
          <mxGeometry x="996.75" y="586" width="65" height="30" as="geometry" />
        </mxCell>
        <mxCell id="69" value="VehicleType" style="ellipse;whiteSpace=wrap;html=1;align=center;container=0;" parent="1" vertex="1">
          <mxGeometry x="950.5" y="616" width="75" height="30" as="geometry" />
        </mxCell>
        <mxCell id="70" value="Manufacturer" style="ellipse;whiteSpace=wrap;html=1;align=center;container=0;" parent="1" vertex="1">
          <mxGeometry x="964.5" y="650" width="120" height="40" as="geometry" />
        </mxCell>
        <mxCell id="71" value="FuelType" style="ellipse;whiteSpace=wrap;html=1;align=center;container=0;" parent="1" vertex="1">
          <mxGeometry x="936.75" y="561" width="75" height="30" as="geometry" />
        </mxCell>
        <mxCell id="72" value="Model" style="ellipse;whiteSpace=wrap;html=1;align=center;container=0;" parent="1" vertex="1">
          <mxGeometry x="964.5" y="707" width="85" height="30" as="geometry" />
        </mxCell>
        <mxCell id="73" value="Year" style="ellipse;whiteSpace=wrap;html=1;align=center;container=0;" parent="1" vertex="1">
          <mxGeometry x="868" y="701" width="75" height="30" as="geometry" />
        </mxCell>
        <mxCell id="74" value="Colors" style="ellipse;shape=doubleEllipse;margin=3;whiteSpace=wrap;html=1;align=center;container=0;" parent="1" vertex="1">
          <mxGeometry x="913.75" y="511" width="75" height="30" as="geometry" />
        </mxCell>
        <mxCell id="75" value="" style="endArrow=none;html=1;rounded=0;exitX=1;exitY=0.25;exitDx=0;exitDy=0;entryX=0.5;entryY=1;entryDx=0;entryDy=0;" parent="1" source="67" target="74" edge="1">
          <mxGeometry relative="1" as="geometry">
            <mxPoint x="1073" y="661" as="sourcePoint" />
            <mxPoint x="1233" y="661" as="targetPoint" />
          </mxGeometry>
        </mxCell>
        <mxCell id="76" value="" style="endArrow=none;html=1;rounded=0;exitX=1;exitY=0.25;exitDx=0;exitDy=0;entryX=0;entryY=0;entryDx=0;entryDy=0;" parent="1" source="67" target="68" edge="1">
          <mxGeometry relative="1" as="geometry">
            <mxPoint x="873" y="631" as="sourcePoint" />
            <mxPoint x="958" y="591" as="targetPoint" />
          </mxGeometry>
        </mxCell>
        <mxCell id="77" value="" style="endArrow=none;html=1;rounded=0;exitX=1;exitY=0.5;exitDx=0;exitDy=0;entryX=0;entryY=0.5;entryDx=0;entryDy=0;" parent="1" source="67" target="69" edge="1">
          <mxGeometry relative="1" as="geometry">
            <mxPoint x="923" y="641" as="sourcePoint" />
            <mxPoint x="973" y="637" as="targetPoint" />
          </mxGeometry>
        </mxCell>
        <mxCell id="78" value="" style="endArrow=none;html=1;rounded=0;exitX=1;exitY=0.75;exitDx=0;exitDy=0;entryX=0;entryY=0.5;entryDx=0;entryDy=0;" parent="1" source="67" target="70" edge="1">
          <mxGeometry relative="1" as="geometry">
            <mxPoint x="903" y="681" as="sourcePoint" />
            <mxPoint x="983" y="681" as="targetPoint" />
          </mxGeometry>
        </mxCell>
        <mxCell id="80" value="" style="endArrow=none;html=1;rounded=0;exitX=1;exitY=1;exitDx=0;exitDy=0;entryX=0;entryY=0;entryDx=0;entryDy=0;" parent="1" source="67" target="73" edge="1">
          <mxGeometry relative="1" as="geometry">
            <mxPoint x="860" y="699" as="sourcePoint" />
            <mxPoint x="923" y="811" as="targetPoint" />
          </mxGeometry>
        </mxCell>
        <mxCell id="81" value="Horsepower" style="ellipse;whiteSpace=wrap;html=1;align=center;container=0;" parent="1" vertex="1">
          <mxGeometry x="843" y="782" width="80" height="30" as="geometry" />
        </mxCell>
        <mxCell id="82" value="" style="endArrow=none;html=1;rounded=0;entryX=0.5;entryY=0;entryDx=0;entryDy=0;" parent="1" target="81" edge="1">
          <mxGeometry relative="1" as="geometry">
            <mxPoint x="833" y="681" as="sourcePoint" />
            <mxPoint x="958" y="901" as="targetPoint" />
          </mxGeometry>
        </mxCell>
        <mxCell id="83" value="Description" style="ellipse;whiteSpace=wrap;html=1;align=center;container=0;" parent="1" vertex="1">
          <mxGeometry x="798" y="758.5" width="65" height="27.5" as="geometry" />
        </mxCell>
        <mxCell id="84" value="" style="endArrow=none;html=1;rounded=0;exitX=0.75;exitY=1;exitDx=0;exitDy=0;entryX=0.5;entryY=0;entryDx=0;entryDy=0;" parent="1" source="67" target="83" edge="1">
          <mxGeometry relative="1" as="geometry">
            <mxPoint x="837" y="709" as="sourcePoint" />
            <mxPoint x="869" y="842" as="targetPoint" />
          </mxGeometry>
        </mxCell>
        <mxCell id="85" value="" style="endArrow=none;html=1;rounded=0;exitX=1;exitY=0.25;exitDx=0;exitDy=0;entryX=0;entryY=1;entryDx=0;entryDy=0;" parent="1" source="67" target="71" edge="1">
          <mxGeometry relative="1" as="geometry">
            <mxPoint x="883" y="601" as="sourcePoint" />
            <mxPoint x="958" y="586" as="targetPoint" />
          </mxGeometry>
        </mxCell>
        <mxCell id="87" value="" style="endArrow=none;html=1;rounded=0;exitX=0.25;exitY=1;exitDx=0;exitDy=0;entryX=0.5;entryY=0;entryDx=0;entryDy=0;" parent="1" source="67" target="3kfbO_DsnVtqJPoFMWyP-136" edge="1">
          <mxGeometry relative="1" as="geometry">
            <mxPoint x="708" y="671" as="sourcePoint" />
            <mxPoint x="788.6000000000001" y="731.75" as="targetPoint" />
          </mxGeometry>
        </mxCell>
        <mxCell id="88" value="Contains" style="shape=rhombus;double=1;perimeter=rhombusPerimeter;whiteSpace=wrap;html=1;align=center;" parent="1" vertex="1">
          <mxGeometry x="690" y="290" width="83" height="40" as="geometry" />
        </mxCell>
        <mxCell id="90" value="M" style="endArrow=none;html=1;rounded=0;entryX=0.5;entryY=1;entryDx=0;entryDy=0;exitX=0.5;exitY=0;exitDx=0;exitDy=0;strokeWidth=1;shape=link;" parent="1" source="57" target="56" edge="1">
          <mxGeometry relative="1" as="geometry">
            <mxPoint x="603" y="381" as="sourcePoint" />
            <mxPoint x="763" y="381" as="targetPoint" />
          </mxGeometry>
        </mxCell>
        <mxCell id="93" value="Supplies" style="shape=rhombus;perimeter=rhombusPerimeter;whiteSpace=wrap;html=1;align=center;" parent="1" vertex="1">
          <mxGeometry x="645" y="28" width="95" height="40" as="geometry" />
        </mxCell>
        <mxCell id="118" value="1" style="endArrow=openAsync;html=1;rounded=0;exitX=0.5;exitY=1;exitDx=0;exitDy=0;entryX=0.25;entryY=0;entryDx=0;entryDy=0;endFill=0;" parent="1" source="57" target="67" edge="1">
          <mxGeometry relative="1" as="geometry">
            <mxPoint x="630" y="375.5" as="sourcePoint" />
            <mxPoint x="801.75" y="641" as="targetPoint" />
          </mxGeometry>
        </mxCell>
        <mxCell id="120" value="1" style="endArrow=none;html=1;rounded=0;exitX=0;exitY=0.5;exitDx=0;exitDy=0;entryX=1;entryY=0.5;entryDx=0;entryDy=0;strokeWidth=1;shape=link;" parent="1" source="88" target="56" edge="1">
          <mxGeometry relative="1" as="geometry">
            <mxPoint x="556" y="459" as="sourcePoint" />
            <mxPoint x="488" y="524" as="targetPoint" />
          </mxGeometry>
        </mxCell>
        <mxCell id="122" value="1" style="endArrow=none;html=1;rounded=0;entryX=0.25;entryY=0;entryDx=0;entryDy=0;" parent="1" target="92" edge="1">
          <mxGeometry relative="1" as="geometry">
            <mxPoint x="740" y="50" as="sourcePoint" />
            <mxPoint x="1009" y="471" as="targetPoint" />
          </mxGeometry>
        </mxCell>
        <mxCell id="124" value="M" style="endArrow=none;html=1;rounded=0;entryX=0.5;entryY=0;entryDx=0;entryDy=0;exitX=0;exitY=0.5;exitDx=0;exitDy=0;strokeWidth=1;shape=link;" parent="1" source="93" target="56" edge="1">
          <mxGeometry relative="1" as="geometry">
            <mxPoint x="848" y="516" as="sourcePoint" />
            <mxPoint x="876" y="466" as="targetPoint" />
          </mxGeometry>
        </mxCell>
        <mxCell id="126" value="M" style="endArrow=none;html=1;rounded=0;entryX=0;entryY=0.25;entryDx=0;entryDy=0;exitX=1;exitY=0.5;exitDx=0;exitDy=0;strokeWidth=1;shape=link;" parent="1" source="88" target="89" edge="1">
          <mxGeometry relative="1" as="geometry">
            <mxPoint x="633" y="319" as="sourcePoint" />
            <mxPoint x="619" y="349" as="targetPoint" />
          </mxGeometry>
        </mxCell>
        <mxCell id="WYIaFoMT0lkRHPIssKwt-132" value="M" style="rounded=0;orthogonalLoop=1;jettySize=auto;html=1;exitX=0;exitY=0.25;exitDx=0;exitDy=0;endArrow=none;endFill=0;strokeWidth=1;entryX=1;entryY=0.5;entryDx=0;entryDy=0;" parent="1" source="67" target="cuakxwB27ysg3Rb4rqLv-141" edge="1">
          <mxGeometry relative="1" as="geometry">
            <mxPoint x="653" y="606" as="sourcePoint" />
            <mxPoint x="493" y="461" as="targetPoint" />
          </mxGeometry>
        </mxCell>
        <mxCell id="3kfbO_DsnVtqJPoFMWyP-136" value="SalePrice" style="ellipse;whiteSpace=wrap;html=1;align=center;dashed=1;" parent="1" vertex="1">
          <mxGeometry x="713" y="731" width="80" height="30" as="geometry" />
        </mxCell>
        <mxCell id="3kfbO_DsnVtqJPoFMWyP-155" value="PhoneNumber" style="ellipse;whiteSpace=wrap;html=1;align=center;" parent="1" vertex="1">
          <mxGeometry x="224" y="729" width="90" height="30" as="geometry" />
        </mxCell>
        <mxCell id="3kfbO_DsnVtqJPoFMWyP-156" value="" style="endArrow=none;html=1;rounded=0;entryX=0.689;entryY=0.033;entryDx=0;entryDy=0;exitX=0.5;exitY=1;exitDx=0;exitDy=0;entryPerimeter=0;" parent="1" source="14" target="3kfbO_DsnVtqJPoFMWyP-155" edge="1">
          <mxGeometry width="50" height="50" relative="1" as="geometry">
            <mxPoint x="454" y="710" as="sourcePoint" />
            <mxPoint x="504" y="660" as="targetPoint" />
          </mxGeometry>
        </mxCell>
        <mxCell id="ULeVYE0AILE1OWulV4gZ-131" value="TotalPartsPrice" style="ellipse;whiteSpace=wrap;html=1;align=center;dashed=1;" parent="1" vertex="1">
          <mxGeometry x="740" y="788" width="100" height="45" as="geometry" />
        </mxCell>
        <mxCell id="cuakxwB27ysg3Rb4rqLv-141" value="SoldBy" style="shape=rhombus;perimeter=rhombusPerimeter;whiteSpace=wrap;html=1;align=center;" parent="1" vertex="1">
          <mxGeometry x="233" y="409" width="70" height="40" as="geometry" />
        </mxCell>
        <mxCell id="cuakxwB27ysg3Rb4rqLv-142" value="PurchasedBy" style="shape=rhombus;perimeter=rhombusPerimeter;whiteSpace=wrap;html=1;align=center;" parent="1" vertex="1">
          <mxGeometry x="277" y="344" width="120" height="40" as="geometry" />
        </mxCell>
        <mxCell id="cuakxwB27ysg3Rb4rqLv-143" value="1" style="rounded=0;orthogonalLoop=1;jettySize=auto;html=1;exitX=0.5;exitY=1;exitDx=0;exitDy=0;endArrow=none;endFill=0;strokeWidth=1;entryX=0;entryY=0.5;entryDx=0;entryDy=0;" parent="1" source="cuakxwB27ysg3Rb4rqLv-159" target="cuakxwB27ysg3Rb4rqLv-141" edge="1">
          <mxGeometry relative="1" as="geometry" />
        </mxCell>
        <mxCell id="cuakxwB27ysg3Rb4rqLv-144" value="1" style="rounded=0;orthogonalLoop=1;jettySize=auto;html=1;exitX=0.5;exitY=1;exitDx=0;exitDy=0;endArrow=none;endFill=0;entryX=0;entryY=0.5;entryDx=0;entryDy=0;strokeWidth=1;" parent="1" source="cuakxwB27ysg3Rb4rqLv-164" target="cuakxwB27ysg3Rb4rqLv-142" edge="1">
          <mxGeometry relative="1" as="geometry">
            <mxPoint x="508" y="317" as="sourcePoint" />
            <mxPoint x="505" y="358" as="targetPoint" />
          </mxGeometry>
        </mxCell>
        <mxCell id="cuakxwB27ysg3Rb4rqLv-159" value="EmployeeSeller" style="whiteSpace=wrap;html=1;" parent="1" vertex="1">
          <mxGeometry x="23.5" y="300" width="100" height="30" as="geometry" />
        </mxCell>
        <mxCell id="s0cp7414dYH4K7qgW8Wr-127" value="Business" style="whiteSpace=wrap;html=1;align=center;container=0;" parent="1" vertex="1">
          <mxGeometry x="163" y="590" width="87" height="41" as="geometry" />
        </mxCell>
        <mxCell id="s0cp7414dYH4K7qgW8Wr-129" value="TIN" style="ellipse;whiteSpace=wrap;html=1;align=center;fontStyle=4;dashed=1;" parent="1" vertex="1">
          <mxGeometry x="156.00000000000003" y="655.5" width="70" height="20" as="geometry" />
        </mxCell>
        <mxCell id="s0cp7414dYH4K7qgW8Wr-130" value="" style="endArrow=none;html=1;rounded=0;exitX=0.729;exitY=0.075;exitDx=0;exitDy=0;entryX=0.75;entryY=1;entryDx=0;entryDy=0;exitPerimeter=0;" parent="1" source="s0cp7414dYH4K7qgW8Wr-129" target="s0cp7414dYH4K7qgW8Wr-127" edge="1">
          <mxGeometry relative="1" as="geometry">
            <mxPoint x="268" y="852" as="sourcePoint" />
            <mxPoint x="78" y="802" as="targetPoint" />
          </mxGeometry>
        </mxCell>
        <mxCell id="s0cp7414dYH4K7qgW8Wr-132" value="BusinessName" style="ellipse;whiteSpace=wrap;html=1;align=center;" parent="1" vertex="1">
          <mxGeometry x="20" y="541" width="115.63" height="29" as="geometry" />
        </mxCell>
        <mxCell id="s0cp7414dYH4K7qgW8Wr-133" value="PrimaryContact" style="ellipse;whiteSpace=wrap;html=1;align=center;" parent="1" vertex="1">
          <mxGeometry x="20" y="630" width="103" height="36" as="geometry" />
        </mxCell>
        <mxCell id="s0cp7414dYH4K7qgW8Wr-134" value="" style="endArrow=none;html=1;rounded=0;exitX=1;exitY=0.5;exitDx=0;exitDy=0;entryX=0;entryY=0.25;entryDx=0;entryDy=0;" parent="1" source="s0cp7414dYH4K7qgW8Wr-132" target="s0cp7414dYH4K7qgW8Wr-127" edge="1">
          <mxGeometry relative="1" as="geometry">
            <mxPoint x="323" y="811" as="sourcePoint" />
            <mxPoint x="133" y="721" as="targetPoint" />
          </mxGeometry>
        </mxCell>
        <mxCell id="s0cp7414dYH4K7qgW8Wr-135" value="" style="endArrow=none;html=1;rounded=0;exitX=1;exitY=0.5;exitDx=0;exitDy=0;entryX=0;entryY=0.75;entryDx=0;entryDy=0;" parent="1" source="s0cp7414dYH4K7qgW8Wr-133" target="s0cp7414dYH4K7qgW8Wr-127" edge="1">
          <mxGeometry relative="1" as="geometry">
            <mxPoint x="63" y="971" as="sourcePoint" />
            <mxPoint x="83" y="921" as="targetPoint" />
          </mxGeometry>
        </mxCell>
        <mxCell id="s0cp7414dYH4K7qgW8Wr-136" value="d" style="ellipse;whiteSpace=wrap;html=1;aspect=fixed;" parent="1" vertex="1">
          <mxGeometry x="190" y="526" width="23" height="23" as="geometry" />
        </mxCell>
        <mxCell id="s0cp7414dYH4K7qgW8Wr-137" value="" style="endArrow=none;html=1;rounded=0;entryX=0.5;entryY=0;entryDx=0;entryDy=0;exitX=1;exitY=0.5;exitDx=0;exitDy=0;exitPerimeter=0;" parent="1" source="aKuBhNnoJ7vEJyM0oMYn-127" target="s0cp7414dYH4K7qgW8Wr-127" edge="1">
          <mxGeometry relative="1" as="geometry">
            <mxPoint x="248" y="669" as="sourcePoint" />
            <mxPoint x="244" y="557" as="targetPoint" />
          </mxGeometry>
        </mxCell>
        <mxCell id="s0cp7414dYH4K7qgW8Wr-138" value="" style="endArrow=none;html=1;rounded=0;exitX=0.5;exitY=0;exitDx=0;exitDy=0;entryX=1;entryY=0.5;entryDx=0;entryDy=0;" parent="1" source="s0cp7414dYH4K7qgW8Wr-136" target="s0cp7414dYH4K7qgW8Wr-126" edge="1">
          <mxGeometry relative="1" as="geometry">
            <mxPoint x="223" y="578" as="sourcePoint" />
            <mxPoint x="223" y="618" as="targetPoint" />
          </mxGeometry>
        </mxCell>
        <mxCell id="s0cp7414dYH4K7qgW8Wr-139" value="" style="shape=requiredInterface;html=1;verticalLabelPosition=bottom;sketch=0;rotation=-95;" parent="1" vertex="1">
          <mxGeometry x="195.23999999999998" y="494.11" width="12.52" height="19.89" as="geometry" />
        </mxCell>
        <mxCell id="cuakxwB27ysg3Rb4rqLv-128" value="User" style="whiteSpace=wrap;html=1;align=center;" parent="1" vertex="1">
          <mxGeometry x="43" y="128" width="100" height="40" as="geometry" />
        </mxCell>
        <mxCell id="cuakxwB27ysg3Rb4rqLv-129" value="Name" style="ellipse;whiteSpace=wrap;html=1;align=center;" parent="1" vertex="1">
          <mxGeometry x="123" y="68" width="100" height="40" as="geometry" />
        </mxCell>
        <mxCell id="cuakxwB27ysg3Rb4rqLv-130" value="Password" style="ellipse;whiteSpace=wrap;html=1;align=center;" parent="1" vertex="1">
          <mxGeometry x="193" y="113" width="100" height="40" as="geometry" />
        </mxCell>
        <mxCell id="cuakxwB27ysg3Rb4rqLv-131" value="Username" style="ellipse;whiteSpace=wrap;html=1;align=center;fontStyle=4;" parent="1" vertex="1">
          <mxGeometry x="183" y="168" width="100" height="40" as="geometry" />
        </mxCell>
        <mxCell id="cuakxwB27ysg3Rb4rqLv-132" value="" style="endArrow=none;html=1;rounded=0;entryX=0;entryY=0;entryDx=0;entryDy=0;exitX=1;exitY=0.5;exitDx=0;exitDy=0;" parent="1" source="cuakxwB27ysg3Rb4rqLv-128" target="cuakxwB27ysg3Rb4rqLv-131" edge="1">
          <mxGeometry relative="1" as="geometry">
            <mxPoint x="-197" y="188" as="sourcePoint" />
            <mxPoint x="-37" y="188" as="targetPoint" />
          </mxGeometry>
        </mxCell>
        <mxCell id="cuakxwB27ysg3Rb4rqLv-133" value="" style="endArrow=none;html=1;rounded=0;entryX=0;entryY=1;entryDx=0;entryDy=0;exitX=1;exitY=0.25;exitDx=0;exitDy=0;" parent="1" source="cuakxwB27ysg3Rb4rqLv-128" target="cuakxwB27ysg3Rb4rqLv-130" edge="1">
          <mxGeometry relative="1" as="geometry">
            <mxPoint x="153" y="158" as="sourcePoint" />
            <mxPoint x="208" y="184" as="targetPoint" />
          </mxGeometry>
        </mxCell>
        <mxCell id="cuakxwB27ysg3Rb4rqLv-134" value="FirstName" style="ellipse;whiteSpace=wrap;html=1;align=center;" parent="1" vertex="1">
          <mxGeometry x="115.5" y="19.24" width="100" height="40" as="geometry" />
        </mxCell>
        <mxCell id="cuakxwB27ysg3Rb4rqLv-135" value="LastName" style="ellipse;whiteSpace=wrap;html=1;align=center;" parent="1" vertex="1">
          <mxGeometry x="226" y="28" width="100" height="40" as="geometry" />
        </mxCell>
        <mxCell id="cuakxwB27ysg3Rb4rqLv-136" value="" style="endArrow=none;html=1;rounded=0;entryX=0;entryY=1;entryDx=0;entryDy=0;exitX=0.5;exitY=0;exitDx=0;exitDy=0;" parent="1" source="cuakxwB27ysg3Rb4rqLv-129" target="cuakxwB27ysg3Rb4rqLv-135" edge="1">
          <mxGeometry relative="1" as="geometry">
            <mxPoint x="153" y="148" as="sourcePoint" />
            <mxPoint x="218" y="157" as="targetPoint" />
          </mxGeometry>
        </mxCell>
        <mxCell id="cuakxwB27ysg3Rb4rqLv-137" value="" style="endArrow=none;html=1;rounded=0;entryX=0.5;entryY=1;entryDx=0;entryDy=0;exitX=0.5;exitY=0;exitDx=0;exitDy=0;" parent="1" source="cuakxwB27ysg3Rb4rqLv-129" target="cuakxwB27ysg3Rb4rqLv-134" edge="1">
          <mxGeometry relative="1" as="geometry">
            <mxPoint x="227" y="105" as="sourcePoint" />
            <mxPoint x="258" y="102" as="targetPoint" />
          </mxGeometry>
        </mxCell>
        <mxCell id="cuakxwB27ysg3Rb4rqLv-138" value="" style="endArrow=none;html=1;rounded=0;entryX=0.63;entryY=0.025;entryDx=0;entryDy=0;exitX=0.03;exitY=0.675;exitDx=0;exitDy=0;exitPerimeter=0;entryPerimeter=0;" parent="1" source="cuakxwB27ysg3Rb4rqLv-129" target="cuakxwB27ysg3Rb4rqLv-128" edge="1">
          <mxGeometry relative="1" as="geometry">
            <mxPoint x="183" y="78" as="sourcePoint" />
            <mxPoint x="223" y="68" as="targetPoint" />
          </mxGeometry>
        </mxCell>
        <mxCell id="cuakxwB27ysg3Rb4rqLv-139" value="UserType" style="ellipse;whiteSpace=wrap;html=1;align=center;" parent="1" vertex="1">
          <mxGeometry y="68" width="108" height="40" as="geometry" />
        </mxCell>
        <mxCell id="cuakxwB27ysg3Rb4rqLv-140" value="" style="endArrow=none;html=1;rounded=0;entryX=0.5;entryY=1;entryDx=0;entryDy=0;exitX=0.5;exitY=0;exitDx=0;exitDy=0;" parent="1" source="cuakxwB27ysg3Rb4rqLv-128" target="cuakxwB27ysg3Rb4rqLv-139" edge="1">
          <mxGeometry width="50" height="50" relative="1" as="geometry">
            <mxPoint x="-47" y="158" as="sourcePoint" />
            <mxPoint x="3" y="108" as="targetPoint" />
          </mxGeometry>
        </mxCell>
        <mxCell id="cuakxwB27ysg3Rb4rqLv-149" value="o" style="ellipse;whiteSpace=wrap;html=1;aspect=fixed;" parent="1" vertex="1">
          <mxGeometry x="98" y="195" width="25" height="25" as="geometry" />
        </mxCell>
        <mxCell id="cuakxwB27ysg3Rb4rqLv-148" value="" style="rounded=0;orthogonalLoop=1;jettySize=auto;html=1;endArrow=none;endFill=0;" parent="1" source="cuakxwB27ysg3Rb4rqLv-128" target="cuakxwB27ysg3Rb4rqLv-149" edge="1">
          <mxGeometry relative="1" as="geometry">
            <mxPoint x="424" y="292" as="sourcePoint" />
            <mxPoint x="327" y="292" as="targetPoint" />
          </mxGeometry>
        </mxCell>
        <mxCell id="cuakxwB27ysg3Rb4rqLv-164" value="EmployeeBuyer" style="whiteSpace=wrap;html=1;movable=1;resizable=1;rotatable=1;deletable=1;editable=1;locked=0;connectable=1;" parent="1" vertex="1">
          <mxGeometry x="143" y="266" width="134" height="30" as="geometry" />
        </mxCell>
        <mxCell id="rqgxZtkJZLHzMMpunSXY-129" value="" style="group" parent="1" vertex="1" connectable="0">
          <mxGeometry x="154.66847541504458" y="229.94059737535486" width="19.663049169910835" height="22.11880524929029" as="geometry" />
        </mxCell>
        <mxCell id="cuakxwB27ysg3Rb4rqLv-154" value="" style="rounded=0;orthogonalLoop=1;jettySize=auto;html=1;endArrow=none;endFill=0;entryX=0.5;entryY=0;entryDx=0;entryDy=0;exitX=1;exitY=1;exitDx=0;exitDy=0;" parent="rqgxZtkJZLHzMMpunSXY-129" source="cuakxwB27ysg3Rb4rqLv-149" target="cuakxwB27ysg3Rb4rqLv-164" edge="1">
          <mxGeometry relative="1" as="geometry">
            <mxPoint x="238.33152458495542" y="38.059402624645145" as="sourcePoint" />
          </mxGeometry>
        </mxCell>
        <mxCell id="cuakxwB27ysg3Rb4rqLv-155" value="" style="shape=requiredInterface;html=1;verticalLabelPosition=bottom;sketch=0;rotation=35;" parent="rqgxZtkJZLHzMMpunSXY-129" vertex="1">
          <mxGeometry x="4.831524584955417" y="1.059402624645145" width="10" height="20" as="geometry" />
        </mxCell>
        <mxCell id="rqgxZtkJZLHzMMpunSXY-130" value="" style="group" parent="1" vertex="1" connectable="0">
          <mxGeometry x="77.62561752037752" y="257.7419016875397" width="21.748764959244966" height="20.516196624920553" as="geometry" />
        </mxCell>
        <mxCell id="cuakxwB27ysg3Rb4rqLv-147" value="" style="shape=requiredInterface;html=1;verticalLabelPosition=bottom;sketch=0;rotation=130;" parent="rqgxZtkJZLHzMMpunSXY-130" vertex="1">
          <mxGeometry x="5.874382479622483" y="0.2580983124602767" width="10" height="20" as="geometry" />
        </mxCell>
        <mxCell id="cuakxwB27ysg3Rb4rqLv-157" value="" style="rounded=0;orthogonalLoop=1;jettySize=auto;html=1;endArrow=none;endFill=0;entryX=0.5;entryY=0;entryDx=0;entryDy=0;exitX=0.5;exitY=1;exitDx=0;exitDy=0;" parent="rqgxZtkJZLHzMMpunSXY-130" source="cuakxwB27ysg3Rb4rqLv-149" target="cuakxwB27ysg3Rb4rqLv-159" edge="1">
          <mxGeometry relative="1" as="geometry">
            <mxPoint x="22.374382479622483" y="-27.741901687539723" as="sourcePoint" />
          </mxGeometry>
        </mxCell>
        <mxCell id="rqgxZtkJZLHzMMpunSXY-132" value="" style="group" parent="1" vertex="1" connectable="0">
          <mxGeometry x="733" y="10" width="335" height="185" as="geometry" />
        </mxCell>
        <mxCell id="92" value="Vendor" style="whiteSpace=wrap;html=1;align=center;" parent="rqgxZtkJZLHzMMpunSXY-132" vertex="1">
          <mxGeometry x="103.75" y="145" width="100" height="40" as="geometry" />
        </mxCell>
        <mxCell id="94" value="Name" style="ellipse;whiteSpace=wrap;html=1;align=center;fontStyle=4;container=0;" parent="rqgxZtkJZLHzMMpunSXY-132" vertex="1">
          <mxGeometry x="230" y="140" width="90" height="30" as="geometry" />
        </mxCell>
        <mxCell id="95" value="Address" style="ellipse;whiteSpace=wrap;html=1;align=center;container=0;" parent="rqgxZtkJZLHzMMpunSXY-132" vertex="1">
          <mxGeometry x="116.25" y="95" width="75" height="20" as="geometry" />
        </mxCell>
        <mxCell id="96" value="" style="endArrow=none;html=1;rounded=0;exitX=0.4;exitY=0;exitDx=0;exitDy=0;entryX=0.63;entryY=0.95;entryDx=0;entryDy=0;entryPerimeter=0;exitPerimeter=0;" parent="rqgxZtkJZLHzMMpunSXY-132" source="95" target="100" edge="1">
          <mxGeometry relative="1" as="geometry">
            <mxPoint x="46.25" y="-75" as="sourcePoint" />
            <mxPoint x="206.25" y="-75" as="targetPoint" />
          </mxGeometry>
        </mxCell>
        <mxCell id="97" value="" style="endArrow=none;html=1;rounded=0;exitX=0.5;exitY=1;exitDx=0;exitDy=0;entryX=0.6;entryY=0;entryDx=0;entryDy=0;entryPerimeter=0;" parent="rqgxZtkJZLHzMMpunSXY-132" source="101" target="95" edge="1">
          <mxGeometry relative="1" as="geometry">
            <mxPoint x="16.25" y="-105" as="sourcePoint" />
            <mxPoint x="158.75" y="4" as="targetPoint" />
          </mxGeometry>
        </mxCell>
        <mxCell id="98" value="" style="endArrow=none;html=1;rounded=0;exitX=0.5;exitY=1;exitDx=0;exitDy=0;entryX=1;entryY=0;entryDx=0;entryDy=0;" parent="rqgxZtkJZLHzMMpunSXY-132" source="102" target="95" edge="1">
          <mxGeometry relative="1" as="geometry">
            <mxPoint x="56.25" y="-121" as="sourcePoint" />
            <mxPoint x="29.25" y="-108" as="targetPoint" />
          </mxGeometry>
        </mxCell>
        <mxCell id="99" value="" style="endArrow=none;html=1;rounded=0;exitX=0.5;exitY=1;exitDx=0;exitDy=0;entryX=0;entryY=0;entryDx=0;entryDy=0;" parent="rqgxZtkJZLHzMMpunSXY-132" source="103" target="95" edge="1">
          <mxGeometry relative="1" as="geometry">
            <mxPoint x="91.25" y="-97" as="sourcePoint" />
            <mxPoint x="66.25" y="-85" as="targetPoint" />
          </mxGeometry>
        </mxCell>
        <mxCell id="100" value="Street" style="ellipse;whiteSpace=wrap;html=1;align=center;container=0;" parent="rqgxZtkJZLHzMMpunSXY-132" vertex="1">
          <mxGeometry x="118.75" width="70" height="20" as="geometry" />
        </mxCell>
        <mxCell id="101" value="City" style="ellipse;whiteSpace=wrap;html=1;align=center;container=0;" parent="rqgxZtkJZLHzMMpunSXY-132" vertex="1">
          <mxGeometry x="161.25" y="35" width="60" height="20" as="geometry" />
        </mxCell>
        <mxCell id="102" value="State" style="ellipse;whiteSpace=wrap;html=1;align=center;container=0;" parent="rqgxZtkJZLHzMMpunSXY-132" vertex="1">
          <mxGeometry x="215" y="55" width="55" height="20" as="geometry" />
        </mxCell>
        <mxCell id="103" value="PostalCode" style="ellipse;whiteSpace=wrap;html=1;align=center;container=0;" parent="rqgxZtkJZLHzMMpunSXY-132" vertex="1">
          <mxGeometry x="65" y="25" width="78.75" height="20" as="geometry" />
        </mxCell>
        <mxCell id="104" value="PhoneNumber" style="ellipse;whiteSpace=wrap;html=1;align=center;container=0;" parent="rqgxZtkJZLHzMMpunSXY-132" vertex="1">
          <mxGeometry x="230" y="85" width="105" height="30" as="geometry" />
        </mxCell>
        <mxCell id="110" value="" style="endArrow=none;html=1;rounded=0;exitX=0;exitY=0.5;exitDx=0;exitDy=0;entryX=0.75;entryY=0;entryDx=0;entryDy=0;" parent="rqgxZtkJZLHzMMpunSXY-132" source="104" target="92" edge="1">
          <mxGeometry relative="1" as="geometry">
            <mxPoint x="201" y="65" as="sourcePoint" />
            <mxPoint x="171" y="105" as="targetPoint" />
          </mxGeometry>
        </mxCell>
        <mxCell id="111" value="" style="endArrow=none;html=1;rounded=0;exitX=0.5;exitY=1;exitDx=0;exitDy=0;entryX=0.5;entryY=0;entryDx=0;entryDy=0;" parent="rqgxZtkJZLHzMMpunSXY-132" source="95" target="92" edge="1">
          <mxGeometry relative="1" as="geometry">
            <mxPoint x="240" y="115" as="sourcePoint" />
            <mxPoint x="189" y="155" as="targetPoint" />
          </mxGeometry>
        </mxCell>
        <mxCell id="112" value="" style="endArrow=none;html=1;rounded=0;exitX=0.5;exitY=1;exitDx=0;exitDy=0;entryX=1;entryY=0.5;entryDx=0;entryDy=0;" parent="rqgxZtkJZLHzMMpunSXY-132" source="94" target="92" edge="1">
          <mxGeometry relative="1" as="geometry">
            <mxPoint x="164" y="125" as="sourcePoint" />
            <mxPoint x="207" y="170" as="targetPoint" />
          </mxGeometry>
        </mxCell>
        <mxCell id="rqgxZtkJZLHzMMpunSXY-135" value="" style="group" parent="1" vertex="1" connectable="0">
          <mxGeometry x="830" y="240" width="242.5" height="185" as="geometry" />
        </mxCell>
        <mxCell id="89" value="Part" style="shape=ext;margin=3;double=1;whiteSpace=wrap;html=1;align=center;" parent="rqgxZtkJZLHzMMpunSXY-135" vertex="1">
          <mxGeometry y="65" width="100" height="40" as="geometry" />
        </mxCell>
        <mxCell id="105" value="Status" style="ellipse;whiteSpace=wrap;html=1;align=center;container=0;" parent="rqgxZtkJZLHzMMpunSXY-135" vertex="1">
          <mxGeometry width="75" height="20" as="geometry" />
        </mxCell>
        <mxCell id="106" value="UnitPrice" style="ellipse;whiteSpace=wrap;html=1;align=center;container=0;" parent="rqgxZtkJZLHzMMpunSXY-135" vertex="1">
          <mxGeometry x="105" y="25" width="75" height="20" as="geometry" />
        </mxCell>
        <mxCell id="107" value="&lt;span style=&quot;border-bottom: 1px dotted&quot;&gt;PartNumber&lt;/span&gt;" style="ellipse;whiteSpace=wrap;html=1;align=center;" parent="rqgxZtkJZLHzMMpunSXY-135" vertex="1">
          <mxGeometry x="152.5" y="80" width="90" height="35" as="geometry" />
        </mxCell>
        <mxCell id="115" value="" style="endArrow=none;html=1;rounded=0;exitX=0.5;exitY=1;exitDx=0;exitDy=0;entryX=0.5;entryY=0;entryDx=0;entryDy=0;" parent="rqgxZtkJZLHzMMpunSXY-135" source="105" target="89" edge="1">
          <mxGeometry relative="1" as="geometry">
            <mxPoint x="-75" y="-125" as="sourcePoint" />
            <mxPoint x="-126" y="-85" as="targetPoint" />
          </mxGeometry>
        </mxCell>
        <mxCell id="116" value="" style="endArrow=none;html=1;rounded=0;exitX=0;exitY=0.5;exitDx=0;exitDy=0;entryX=0.6;entryY=0;entryDx=0;entryDy=0;entryPerimeter=0;" parent="rqgxZtkJZLHzMMpunSXY-135" source="106" target="89" edge="1">
          <mxGeometry relative="1" as="geometry">
            <mxPoint x="78" y="25" as="sourcePoint" />
            <mxPoint x="80" y="65" as="targetPoint" />
          </mxGeometry>
        </mxCell>
        <mxCell id="117" value="" style="endArrow=none;html=1;rounded=0;exitX=0;exitY=0.5;exitDx=0;exitDy=0;" parent="rqgxZtkJZLHzMMpunSXY-135" source="107" target="89" edge="1">
          <mxGeometry relative="1" as="geometry">
            <mxPoint x="147.72242786133484" y="95.30625052539335" as="sourcePoint" />
            <mxPoint x="90" y="65" as="targetPoint" />
          </mxGeometry>
        </mxCell>
        <mxCell id="3kfbO_DsnVtqJPoFMWyP-164" value="Description" style="ellipse;whiteSpace=wrap;html=1;align=center;container=0;" parent="rqgxZtkJZLHzMMpunSXY-135" vertex="1">
          <mxGeometry x="105" y="165" width="75" height="20" as="geometry" />
        </mxCell>
        <mxCell id="3kfbO_DsnVtqJPoFMWyP-165" value="Quantity" style="ellipse;whiteSpace=wrap;html=1;align=center;container=0;" parent="rqgxZtkJZLHzMMpunSXY-135" vertex="1">
          <mxGeometry x="25" y="155" width="75" height="20" as="geometry" />
        </mxCell>
        <mxCell id="3kfbO_DsnVtqJPoFMWyP-168" value="" style="endArrow=none;html=1;rounded=0;entryX=0.5;entryY=1;entryDx=0;entryDy=0;exitX=0.5;exitY=0;exitDx=0;exitDy=0;" parent="rqgxZtkJZLHzMMpunSXY-135" source="3kfbO_DsnVtqJPoFMWyP-165" target="89" edge="1">
          <mxGeometry width="50" height="50" relative="1" as="geometry">
            <mxPoint x="60" y="145" as="sourcePoint" />
            <mxPoint x="120" y="105" as="targetPoint" />
          </mxGeometry>
        </mxCell>
        <mxCell id="3kfbO_DsnVtqJPoFMWyP-169" value="" style="endArrow=none;html=1;rounded=0;entryX=0.5;entryY=1;entryDx=0;entryDy=0;exitX=0.5;exitY=0;exitDx=0;exitDy=0;" parent="rqgxZtkJZLHzMMpunSXY-135" source="3kfbO_DsnVtqJPoFMWyP-164" target="89" edge="1">
          <mxGeometry width="50" height="50" relative="1" as="geometry">
            <mxPoint x="90" y="175" as="sourcePoint" />
            <mxPoint x="140" y="125" as="targetPoint" />
          </mxGeometry>
        </mxCell>
        <mxCell id="-tnbudxUlEWWrItCs4y8-140" value="State" style="ellipse;whiteSpace=wrap;html=1;align=center;container=0;" parent="1" vertex="1">
          <mxGeometry x="416" y="770" width="55" height="20" as="geometry" />
        </mxCell>
        <mxCell id="-tnbudxUlEWWrItCs4y8-134" value="" style="endArrow=none;html=1;rounded=0;exitX=0.426;exitY=-0.143;exitDx=0;exitDy=0;entryX=1;entryY=0;entryDx=0;entryDy=0;exitPerimeter=0;" parent="1" source="-tnbudxUlEWWrItCs4y8-140" target="-tnbudxUlEWWrItCs4y8-137" edge="1">
          <mxGeometry relative="1" as="geometry">
            <mxPoint x="95" y="591.25" as="sourcePoint" />
            <mxPoint x="68" y="604.25" as="targetPoint" />
          </mxGeometry>
        </mxCell>
        <mxCell id="-tnbudxUlEWWrItCs4y8-132" value="" style="endArrow=none;html=1;rounded=0;exitX=0.4;exitY=0;exitDx=0;exitDy=0;entryX=0.63;entryY=0.95;entryDx=0;entryDy=0;entryPerimeter=0;exitPerimeter=0;" parent="1" source="-tnbudxUlEWWrItCs4y8-137" target="-tnbudxUlEWWrItCs4y8-138" edge="1">
          <mxGeometry relative="1" as="geometry">
            <mxPoint x="72" y="578.5" as="sourcePoint" />
            <mxPoint x="232" y="578.5" as="targetPoint" />
          </mxGeometry>
        </mxCell>
        <mxCell id="-tnbudxUlEWWrItCs4y8-133" value="" style="endArrow=none;html=1;rounded=0;exitX=0.5;exitY=1;exitDx=0;exitDy=0;entryX=0.6;entryY=0;entryDx=0;entryDy=0;entryPerimeter=0;" parent="1" source="-tnbudxUlEWWrItCs4y8-139" target="-tnbudxUlEWWrItCs4y8-137" edge="1">
          <mxGeometry relative="1" as="geometry">
            <mxPoint x="42" y="548.5" as="sourcePoint" />
            <mxPoint x="184.5" y="657.5" as="targetPoint" />
          </mxGeometry>
        </mxCell>
        <mxCell id="-tnbudxUlEWWrItCs4y8-135" value="" style="endArrow=none;html=1;rounded=0;exitX=0.5;exitY=1;exitDx=0;exitDy=0;entryX=1;entryY=1;entryDx=0;entryDy=0;" parent="1" source="-tnbudxUlEWWrItCs4y8-137" target="-tnbudxUlEWWrItCs4y8-141" edge="1">
          <mxGeometry relative="1" as="geometry">
            <mxPoint x="234.5" y="763.5" as="sourcePoint" />
            <mxPoint x="198.5" y="682.5" as="targetPoint" />
          </mxGeometry>
        </mxCell>
        <mxCell id="-tnbudxUlEWWrItCs4y8-136" value="" style="endArrow=none;html=1;rounded=0;entryX=0.5;entryY=1;entryDx=0;entryDy=0;exitX=0.5;exitY=1;exitDx=0;exitDy=0;" parent="1" source="14" target="-tnbudxUlEWWrItCs4y8-137" edge="1">
          <mxGeometry relative="1" as="geometry">
            <mxPoint x="318" y="573.5" as="sourcePoint" />
            <mxPoint x="809.5" y="533.5" as="targetPoint" />
          </mxGeometry>
        </mxCell>
        <mxCell id="-tnbudxUlEWWrItCs4y8-137" value="Address" style="ellipse;whiteSpace=wrap;html=1;align=center;container=0;" parent="1" vertex="1">
          <mxGeometry x="341" y="696.5" width="75" height="20" as="geometry" />
        </mxCell>
        <mxCell id="-tnbudxUlEWWrItCs4y8-138" value="Street" style="ellipse;whiteSpace=wrap;html=1;align=center;container=0;" parent="1" vertex="1">
          <mxGeometry x="371" y="795" width="70" height="20" as="geometry" />
        </mxCell>
        <mxCell id="-tnbudxUlEWWrItCs4y8-139" value="City" style="ellipse;whiteSpace=wrap;html=1;align=center;container=0;" parent="1" vertex="1">
          <mxGeometry x="274" y="775" width="60" height="20" as="geometry" />
        </mxCell>
        <mxCell id="-tnbudxUlEWWrItCs4y8-141" value="PostalCode" style="ellipse;whiteSpace=wrap;html=1;align=center;container=0;" parent="1" vertex="1">
          <mxGeometry x="291" y="806" width="75" height="20" as="geometry" />
        </mxCell>
        <mxCell id="-PqMjG7bG7qX0cA3N6xI-130" value="" style="group" parent="1" vertex="1" connectable="0">
          <mxGeometry x="13" y="434" width="185" height="112.5" as="geometry" />
        </mxCell>
        <mxCell id="-PqMjG7bG7qX0cA3N6xI-131" value="Name" style="ellipse;whiteSpace=wrap;html=1;align=center;" parent="-PqMjG7bG7qX0cA3N6xI-130" vertex="1">
          <mxGeometry x="23" y="40" width="60" height="20" as="geometry" />
        </mxCell>
        <mxCell id="-PqMjG7bG7qX0cA3N6xI-132" value="FirstName" style="ellipse;whiteSpace=wrap;html=1;align=center;" parent="-PqMjG7bG7qX0cA3N6xI-130" vertex="1">
          <mxGeometry x="80" y="70.5" width="70" height="29.5" as="geometry" />
        </mxCell>
        <mxCell id="-PqMjG7bG7qX0cA3N6xI-133" value="LastName" style="ellipse;whiteSpace=wrap;html=1;align=center;" parent="-PqMjG7bG7qX0cA3N6xI-130" vertex="1">
          <mxGeometry x="-4" y="72.5" width="80" height="30" as="geometry" />
        </mxCell>
        <mxCell id="-PqMjG7bG7qX0cA3N6xI-135" value="" style="endArrow=none;html=1;rounded=0;entryX=0.413;entryY=0;entryDx=0;entryDy=0;entryPerimeter=0;" parent="-PqMjG7bG7qX0cA3N6xI-130" source="-PqMjG7bG7qX0cA3N6xI-131" target="-PqMjG7bG7qX0cA3N6xI-133" edge="1">
          <mxGeometry relative="1" as="geometry">
            <mxPoint x="80" y="171.5" as="sourcePoint" />
            <mxPoint x="100" y="-367.5" as="targetPoint" />
          </mxGeometry>
        </mxCell>
        <mxCell id="-PqMjG7bG7qX0cA3N6xI-136" value="" style="endArrow=none;html=1;rounded=0;exitX=0.5;exitY=1;exitDx=0;exitDy=0;entryX=0;entryY=0;entryDx=0;entryDy=0;" parent="-PqMjG7bG7qX0cA3N6xI-130" source="-PqMjG7bG7qX0cA3N6xI-131" target="-PqMjG7bG7qX0cA3N6xI-132" edge="1">
          <mxGeometry relative="1" as="geometry">
            <mxPoint x="165" y="-352.5" as="sourcePoint" />
            <mxPoint x="190" y="-352.5" as="targetPoint" />
          </mxGeometry>
        </mxCell>
        <mxCell id="-PqMjG7bG7qX0cA3N6xI-137" style="edgeStyle=orthogonalEdgeStyle;rounded=0;orthogonalLoop=1;jettySize=auto;html=1;exitX=0.5;exitY=1;exitDx=0;exitDy=0;" parent="-PqMjG7bG7qX0cA3N6xI-130" source="-PqMjG7bG7qX0cA3N6xI-132" target="-PqMjG7bG7qX0cA3N6xI-132" edge="1">
          <mxGeometry relative="1" as="geometry" />
        </mxCell>
        <mxCell id="s0cp7414dYH4K7qgW8Wr-128" value="SSN" style="ellipse;whiteSpace=wrap;html=1;align=center;fontStyle=4;dashed=1;" parent="-PqMjG7bG7qX0cA3N6xI-130" vertex="1">
          <mxGeometry x="23" y="-9" width="60" height="25" as="geometry" />
        </mxCell>
        <mxCell id="s0cp7414dYH4K7qgW8Wr-126" value="Individual" style="whiteSpace=wrap;html=1;align=center;container=0;" parent="-PqMjG7bG7qX0cA3N6xI-130" vertex="1">
          <mxGeometry x="115" y="16" width="70" height="30" as="geometry" />
        </mxCell>
        <mxCell id="s0cp7414dYH4K7qgW8Wr-131" value="" style="endArrow=none;html=1;rounded=0;exitX=1;exitY=0.5;exitDx=0;exitDy=0;entryX=0;entryY=0.5;entryDx=0;entryDy=0;" parent="-PqMjG7bG7qX0cA3N6xI-130" source="s0cp7414dYH4K7qgW8Wr-128" target="s0cp7414dYH4K7qgW8Wr-126" edge="1">
          <mxGeometry relative="1" as="geometry">
            <mxPoint x="168" y="294" as="sourcePoint" />
            <mxPoint x="88" y="264" as="targetPoint" />
          </mxGeometry>
        </mxCell>
        <mxCell id="-PqMjG7bG7qX0cA3N6xI-134" value="" style="endArrow=none;html=1;rounded=0;entryX=0.5;entryY=0;entryDx=0;entryDy=0;exitX=0;exitY=0.75;exitDx=0;exitDy=0;" parent="-PqMjG7bG7qX0cA3N6xI-130" source="s0cp7414dYH4K7qgW8Wr-126" target="-PqMjG7bG7qX0cA3N6xI-131" edge="1">
          <mxGeometry relative="1" as="geometry">
            <mxPoint x="37" y="21.5" as="sourcePoint" />
            <mxPoint x="270" y="-277.5" as="targetPoint" />
          </mxGeometry>
        </mxCell>
        <mxCell id="-PqMjG7bG7qX0cA3N6xI-152" value="FirstName" style="ellipse;whiteSpace=wrap;html=1;align=center;" parent="1" vertex="1">
          <mxGeometry x="104.33" y="689.5" width="70" height="29.5" as="geometry" />
        </mxCell>
        <mxCell id="-PqMjG7bG7qX0cA3N6xI-153" value="LastName" style="ellipse;whiteSpace=wrap;html=1;align=center;" parent="1" vertex="1">
          <mxGeometry x="45.63" y="720" width="80" height="30" as="geometry" />
        </mxCell>
        <mxCell id="-PqMjG7bG7qX0cA3N6xI-154" value="Title" style="ellipse;whiteSpace=wrap;html=1;align=center;" parent="1" vertex="1">
          <mxGeometry y="681" width="80" height="30" as="geometry" />
        </mxCell>
        <mxCell id="-PqMjG7bG7qX0cA3N6xI-155" value="" style="endArrow=none;html=1;rounded=0;entryX=0.728;entryY=1;entryDx=0;entryDy=0;entryPerimeter=0;" parent="1" source="-PqMjG7bG7qX0cA3N6xI-152" target="s0cp7414dYH4K7qgW8Wr-133" edge="1">
          <mxGeometry relative="1" as="geometry">
            <mxPoint x="120" y="690" as="sourcePoint" />
            <mxPoint x="138" y="637" as="targetPoint" />
          </mxGeometry>
        </mxCell>
        <mxCell id="-PqMjG7bG7qX0cA3N6xI-156" value="" style="endArrow=none;html=1;rounded=0;exitX=0.5;exitY=0;exitDx=0;exitDy=0;entryX=0.291;entryY=0.972;entryDx=0;entryDy=0;entryPerimeter=0;" parent="1" source="-PqMjG7bG7qX0cA3N6xI-154" target="s0cp7414dYH4K7qgW8Wr-133" edge="1">
          <mxGeometry relative="1" as="geometry">
            <mxPoint x="143" y="672" as="sourcePoint" />
            <mxPoint x="80" y="670" as="targetPoint" />
          </mxGeometry>
        </mxCell>
        <mxCell id="56" value="Parts Order" style="shape=ext;margin=3;double=0;whiteSpace=wrap;html=1;align=center;" parent="1" vertex="1">
          <mxGeometry x="511.25" y="165.5" width="113.75" height="40" as="geometry" />
        </mxCell>
        <mxCell id="108" value="&lt;u&gt;PartsOrderNumber&lt;/u&gt;" style="ellipse;whiteSpace=wrap;html=1;align=center;" parent="1" vertex="1">
          <mxGeometry x="360" y="130.5" width="140" height="35" as="geometry" />
        </mxCell>
        <mxCell id="113" value="" style="endArrow=none;html=1;rounded=0;exitX=1;exitY=0.5;exitDx=0;exitDy=0;entryX=0;entryY=0.25;entryDx=0;entryDy=0;" parent="1" source="108" target="56" edge="1">
          <mxGeometry relative="1" as="geometry">
            <mxPoint x="475" y="25.5" as="sourcePoint" />
            <mxPoint x="534" y="55.5" as="targetPoint" />
          </mxGeometry>
        </mxCell>
        <mxCell id="QRC52eoC8IEGHvqzop5s-126" value="" style="endArrow=none;html=1;rounded=0;exitX=0.5;exitY=0;exitDx=0;exitDy=0;" parent="1" source="14" target="QRC52eoC8IEGHvqzop5s-127" edge="1">
          <mxGeometry width="50" height="50" relative="1" as="geometry">
            <mxPoint x="370" y="520" as="sourcePoint" />
            <mxPoint x="310" y="540" as="targetPoint" />
          </mxGeometry>
        </mxCell>
        <mxCell id="QRC52eoC8IEGHvqzop5s-127" value="&lt;u&gt;TaxID&lt;/u&gt;" style="ellipse;whiteSpace=wrap;html=1;" parent="1" vertex="1">
          <mxGeometry x="297" y="486" width="80" height="40" as="geometry" />
        </mxCell>
        <mxCell id="QRC52eoC8IEGHvqzop5s-129" value="" style="endArrow=none;html=1;rounded=0;exitX=0.5;exitY=0;exitDx=0;exitDy=0;fontStyle=4;entryX=1;entryY=1;entryDx=0;entryDy=0;" parent="1" source="s0cp7414dYH4K7qgW8Wr-126" edge="1">
          <mxGeometry width="50" height="50" relative="1" as="geometry">
            <mxPoint x="370" y="520" as="sourcePoint" />
            <mxPoint x="99.80704681858629" y="404.3365771308082" as="targetPoint" />
          </mxGeometry>
        </mxCell>
        <mxCell id="QRC52eoC8IEGHvqzop5s-130" value="CustomerType" style="ellipse;whiteSpace=wrap;html=1;" parent="1" vertex="1">
          <mxGeometry x="5" y="369" width="117" height="40" as="geometry" />
        </mxCell>
        <mxCell id="QRC52eoC8IEGHvqzop5s-131" value="CustomerType" style="ellipse;whiteSpace=wrap;html=1;" parent="1" vertex="1">
          <mxGeometry x="4.999999999999993" y="586" width="117" height="40" as="geometry" />
        </mxCell>
        <mxCell id="QRC52eoC8IEGHvqzop5s-132" value="" style="endArrow=none;html=1;rounded=0;entryX=1;entryY=0.5;entryDx=0;entryDy=0;exitX=0;exitY=0.75;exitDx=0;exitDy=0;" parent="1" source="s0cp7414dYH4K7qgW8Wr-127" target="QRC52eoC8IEGHvqzop5s-131" edge="1">
          <mxGeometry width="50" height="50" relative="1" as="geometry">
            <mxPoint x="130" y="630" as="sourcePoint" />
            <mxPoint x="-30" y="619" as="targetPoint" />
          </mxGeometry>
        </mxCell>
        <mxCell id="QRC52eoC8IEGHvqzop5s-133" value="CustomerType" style="ellipse;whiteSpace=wrap;html=1;" parent="1" vertex="1">
          <mxGeometry x="377" y="514" width="117" height="40" as="geometry" />
        </mxCell>
        <mxCell id="QRC52eoC8IEGHvqzop5s-135" value="" style="endArrow=none;html=1;rounded=0;exitX=1;exitY=0;exitDx=0;exitDy=0;" parent="1" source="14" edge="1">
          <mxGeometry width="50" height="50" relative="1" as="geometry">
            <mxPoint x="391" y="604" as="sourcePoint" />
            <mxPoint x="441" y="554" as="targetPoint" />
          </mxGeometry>
        </mxCell>
        <mxCell id="YT2YXfEoA7owPwvMGIH8-128" value="VIN" style="ellipse;whiteSpace=wrap;html=1;align=center;" parent="1" vertex="1">
          <mxGeometry x="477" y="59.24" width="70" height="30.76" as="geometry" />
        </mxCell>
        <mxCell id="YT2YXfEoA7owPwvMGIH8-129" value="" style="endArrow=none;html=1;rounded=0;exitX=0.5;exitY=1;exitDx=0;exitDy=0;entryX=0.5;entryY=0;entryDx=0;entryDy=0;" parent="1" source="YT2YXfEoA7owPwvMGIH8-128" target="108" edge="1">
          <mxGeometry relative="1" as="geometry">
            <mxPoint x="520" y="96.24000000000001" as="sourcePoint" />
            <mxPoint x="539.6875" y="167.5" as="targetPoint" />
          </mxGeometry>
        </mxCell>
        <mxCell id="YT2YXfEoA7owPwvMGIH8-130" value="Ordinal" style="ellipse;whiteSpace=wrap;html=1;align=center;" parent="1" vertex="1">
          <mxGeometry x="395" y="59.24000000000001" width="70" height="30.76" as="geometry" />
        </mxCell>
        <mxCell id="YT2YXfEoA7owPwvMGIH8-131" value="" style="endArrow=none;html=1;rounded=0;exitX=0.5;exitY=1;exitDx=0;exitDy=0;entryX=0.5;entryY=0;entryDx=0;entryDy=0;" parent="1" source="YT2YXfEoA7owPwvMGIH8-130" target="108" edge="1">
          <mxGeometry relative="1" as="geometry">
            <mxPoint x="435" y="94.24000000000001" as="sourcePoint" />
            <mxPoint x="530" y="160" as="targetPoint" />
          </mxGeometry>
        </mxCell>
        <mxCell id="eWTY6qGneNU77rJe-dBz-126" value="TotalPartsPrice" style="ellipse;whiteSpace=wrap;html=1;align=center;dashed=1;" parent="1" vertex="1">
          <mxGeometry x="352" y="186.5" width="140" height="35" as="geometry" />
        </mxCell>
        <mxCell id="eWTY6qGneNU77rJe-dBz-133" value="" style="endArrow=none;html=1;rounded=0;entryX=0;entryY=0.5;entryDx=0;entryDy=0;exitX=1;exitY=0;exitDx=0;exitDy=0;" parent="1" source="eWTY6qGneNU77rJe-dBz-126" target="56" edge="1">
          <mxGeometry width="50" height="50" relative="1" as="geometry">
            <mxPoint x="490" y="300" as="sourcePoint" />
            <mxPoint x="540" y="250" as="targetPoint" />
          </mxGeometry>
        </mxCell>
        <mxCell id="aKuBhNnoJ7vEJyM0oMYn-128" value="" style="endArrow=none;html=1;rounded=0;entryX=1;entryY=0.5;entryDx=0;entryDy=0;exitX=0.5;exitY=1;exitDx=0;exitDy=0;entryPerimeter=0;" edge="1" parent="1" source="s0cp7414dYH4K7qgW8Wr-136" target="aKuBhNnoJ7vEJyM0oMYn-127">
          <mxGeometry relative="1" as="geometry">
            <mxPoint x="203" y="546" as="sourcePoint" />
            <mxPoint x="207" y="590" as="targetPoint" />
          </mxGeometry>
        </mxCell>
        <mxCell id="aKuBhNnoJ7vEJyM0oMYn-127" value="" style="shape=requiredInterface;html=1;verticalLabelPosition=bottom;sketch=0;rotation=85;" vertex="1" parent="1">
          <mxGeometry x="198" y="554" width="10" height="20" as="geometry" />
        </mxCell>
      </root>
    </mxGraphModel>
  </diagram>
</mxfile>
